<svg xmlns="http://www.w3.org/2000/svg" xmlns:xlink="http://www.w3.org/1999/xlink" width="135.867" height="135.867" viewBox="0 0 135.867 135.867"><defs><clipPath id="a"><rect width="135.867" height="135.867" fill="none"/></clipPath><filter id="b" x="0" y="0" width="135.867" height="135.867" filterUnits="userSpaceOnUse"><feOffset dx="3" dy="3" input="SourceAlpha"/><feGaussianBlur stdDeviation="10" result="c"/><feFlood flood-opacity="0.161"/><feComposite operator="in" in2="c"/><feComposite in="SourceGraphic"/></filter></defs><g clip-path="url(#a)"><g transform="translate(2 2)"><g transform="matrix(1, 0, 0, 1, -2, -2)" filter="url(#b)"><path d="M17.851,0H58.016A17.851,17.851,0,0,1,75.867,17.851V58.016A17.851,17.851,0,0,1,58.016,75.867H17.851A17.851,17.851,0,0,1,0,58.016V17.851A17.851,17.851,0,0,1,17.851,0Z" transform="translate(27 27)" fill="#fcfcfc"/></g><g transform="translate(28 22.867)"><path d="M142.836,16.281c-15.8-.284-30.423,24.427,12.177,50.047a.179.179,0,0,1,.273,0c43.974-26.446,26.977-51.92,10.648-49.937-6.366.773-9.37,4.306-10.785,7.345-1.415-3.039-4.419-6.571-10.785-7.345a14.89,14.89,0,0,0-1.529-.109h0Z" transform="translate(-120.278 -1.003)" fill="#ff007f" fill-rule="evenodd"/></g></g></g></svg>