<svg xmlns="http://www.w3.org/2000/svg" xmlns:xlink="http://www.w3.org/1999/xlink" width="247" height="247" viewBox="0 0 247 247"><defs><clipPath id="a"><rect width="247" height="247" fill="none"/></clipPath><filter id="b" x="0" y="0" width="247" height="247" filterUnits="userSpaceOnUse"><feOffset dx="3" dy="3" input="SourceAlpha"/><feGaussianBlur stdDeviation="10" result="c"/><feFlood flood-opacity="0.161"/><feComposite operator="in" in2="c"/><feComposite in="SourceGraphic"/></filter></defs><g clip-path="url(#a)"><g transform="translate(-67 -286)"><g transform="matrix(1, 0, 0, 1, 67, 286)" filter="url(#b)"><rect width="187" height="187" rx="44" transform="translate(27 27)" fill="#fcfcfc"/></g><g transform="translate(-9.015 321.722)"><g transform="translate(127.015 16.278)"><path d="M166.011,16.284c-38.946-.7-74.987,60.208,30.015,123.356a.442.442,0,0,1,.673,0C305.087,74.455,263.192,11.666,222.945,16.554c-15.69,1.905-23.094,10.613-26.582,18.1-3.488-7.49-10.892-16.2-26.582-18.1a36.7,36.7,0,0,0-3.769-.269h0Z" transform="translate(-127.015 -16.278)" fill="#ff007f" fill-rule="evenodd"/></g></g><text transform="translate(109 487)" fill="#ff007f" font-size="24" font-family="OpenSans-Bold, Open Sans" font-weight="700"><tspan x="0" y="0">LOVER&apos;S MSG</tspan></text></g></g></svg>